<?xml version="1.0" standalone="no"?>
<!DOCTYPE svg PUBLIC "-//W3C//DTD SVG 20010904//EN"
 "http://www.w3.org/TR/2001/REC-SVG-20010904/DTD/svg10.dtd">
<svg version="1.0" xmlns="http://www.w3.org/2000/svg"
 width="512.000000pt" height="512.000000pt" viewBox="0 0 512.000000 512.000000"
 preserveAspectRatio="xMidYMid meet">
<metadata>
Created by potrace 1.14, written by Peter Selinger 2001-2017
</metadata>
<g transform="translate(0.000000,512.000000) scale(0.100000,-0.100000)"
fill="#000000" stroke="none">
<path d="M320 5113 c-45 -9 -144 -60 -185 -96 -50 -44 -102 -129 -121 -199
-12 -45 -13 -379 -11 -2283 l2 -2230 27 -58 c54 -115 130 -184 247 -224 l66
-22 2212 -1 c2141 0 2213 1 2272 19 123 38 216 123 263 239 l23 57 0 2250 0
2250 -32 67 c-41 87 -114 160 -201 201 l-67 32 -2235 1 c-1229 1 -2246 -1
-2260 -3z"/>
</g>
</svg>
